<svg xmlns="http://www.w3.org/2000/svg" xml:space="preserve" width="123.16" height="90.111" viewBox="0 -16.52 123.16 123.16"><g style="opacity:1"><path fill="#216279" d="M2.187 86.053s.034-.372.073-.76c.04-.388.193-.858.475-.891.952-.384 1.622-.734 2.67-1.066 1.134.02 1.89.022 2.735.406a387 387 0 0 0 23.821 3.55c4.702.554 9.448.74 15.016 1.154-3.586-6.897-6.772-13.024-9.635-19.18.754-.051 1.185-.074 2.007.002 10.34 3.65 20.377 3.871 30.712 1.692 7.896-1.664 15.976-2.462 24.432-3.635 1.99.081 3.52.153 4.8.495-1.311.727-2.372 1.182-3.432 1.639-15.283 6.585-30.567 13.17-46.249 19.807-1.139.36-1.879.668-3.02.845-1.807-.198-3.212-.264-5.021-.465-2.105-.172-3.806-.209-5.831-.344-.772-.07-1.219-.044-2.038-.178-10.753-1.13-21.134-2.1-31.515-3.07z" opacity="1"/><path fill="#73b4aa" d="M515.455 105.095c-8.836-2.176-17.671-4.353-26.712-7.038-.206-.51-.085-.92-.085-.92s.43.018.971-.02a13.7 13.7 0 0 0 2.33-.848 221 221 0 0 0 2.63-.169c2.903-.657 5.108-1.258 7.313-1.86a41 41 0 0 0 2.58-.197c.916-.33 1.22-.559 1.525-.788.942-.052 1.885-.104 3.454-.258.93-.315 1.235-.528 1.538-.742.941-.05 1.882-.102 3.413-.222.59-.07 1.058-.228 1.058-.228 5.657-.985 11.315-1.97 17.374-3.018 2.393 3.04 2.566 5.767-1.14 7.76-4.917 2.645-9.82 5.318-15.227 8.253-.673.281-.848.288-1.022.295" opacity="1" style="opacity:1" transform="translate(-453.444 -88.726)"/><path fill="#419d95" d="M32.64 10.869c.138-.266.278-.531.774-1.096.775-.376 1.194-.452 1.852-.23 9.074 2.474 17.91 4.65 26.729 7.178-1.514 1.528-2.886 2.928-4.529 3.847-10.074 5.638-20.208 11.167-30.353 16.748-.03.016-.088.05-.36.025-.451-.05-.631-.076-.737-.478 2.257-8.915 4.44-17.454 6.624-25.994" opacity="1"/><path fill="#77bbb0" d="M32.375 10.934c-1.918 8.475-4.102 17.014-6.575 25.967-.29.412-.726.46-1.173.444-8.1.677-15.755 1.37-23.425 1.811-.014-.419-.014-.586-.014-.754 0 0-.074-.036.173-.088.428-.34.608-.63.789-.92 0 0-.077-.035.183-.09.445-.34.63-.626.815-.911 0 0-.076-.035.184-.09.445-.34.63-.626.815-.91 0 0-.074-.036.192-.092.483-.334.7-.613.916-.89 2.49-2.166 4.98-4.33 7.633-6.79 2.12-2.018 4.08-3.742 6.22-5.734.962-.86 1.743-1.452 2.641-2.317 1.085-1.052 2.053-1.832 3.42-2.981.606-.648.815-.925 1.024-1.203.57-.434 1.14-.868 1.845-1.534.99-.848 1.846-1.463 2.85-2.363.507-.354.864-.421 1.487-.554z" opacity="1"/><path fill="#2d848a" d="M25.074 37.36s.437-.047.652-.084c.396-.011.576.014 1.047.456 3.31 10.786 6.328 21.157 9.019 31.689-9.465 4.754-18.603 9.347-27.74 13.94-.757-.003-1.513-.005-2.65-.42-.022-1.84.106-3.38.73-4.681 5.648-11.795 11.412-23.535 17.062-35.33.84-1.754 1.263-3.708 1.88-5.57" opacity="1"/><path fill="#4ba399" d="M24.627 37.345c-.17 1.877-.593 3.831-1.433 5.586C17.544 54.725 11.78 66.465 6.131 78.26c-.623 1.302-.751 2.84-1.106 4.664-.668.744-1.338 1.094-2.29 1.478C1.65 70.034.849 55.632.005 40.785c-.04-.447.16-.722.432-.967.44-.3.61-.355.78-.41 7.655-.693 15.31-1.386 23.41-2.063" opacity="1"/><path fill="#419d95" d="M36.119 69.259c-3.018-10.37-6.036-20.74-9.074-31.502-.02-.39.038-.425.368-.276 12.77 6.737 25.211 13.325 37.588 20.266-7.113 3.083-14.185 5.757-21.196 8.581-1.718.693-3.236 1.88-4.846 2.841-.432.023-.863.046-1.842.092-.548.024-.998-.003-.998-.003z" opacity="1"/><path fill="#2d848a" d="M39.35 69.268c1.219-1.06 2.737-2.247 4.455-2.94 7.01-2.824 14.083-5.498 21.453-8.595.493-.384.664-.4 1.14-.39.71-.016 1.116-.06 1.813-.063.485.07.679.097 1.127.393 7.991 2.418 15.736 4.54 23.46 6.74 1.416.403 3.651.74 1.237 2.903-7.998 1.183-16.078 1.98-23.974 3.645-10.335 2.178-20.372 1.957-30.712-1.693" opacity="1"/><path fill="#27727d" d="M35.792 69.42c.327-.161.777-.135 1.002-.13 3.411 6.132 6.597 12.26 10.183 19.156-5.568-.414-10.314-.6-15.016-1.154a387 387 0 0 1-23.82-3.55c9.048-4.974 18.186-9.567 27.65-14.321m58.702-2.096c1.956-2.172-.28-2.51-1.695-2.912-7.724-2.2-15.469-4.322-23.108-6.804 1.895-.944 3.692-1.555 5.742-1.882 6.731-.44 13.205-1.198 19.687-1.88 5.278-.554 10.565-1.017 15.849-1.521a35 35 0 0 0-.977 2.476c-1.431 2.577-2.816 4.856-4.882 7.366-3.114.69-5.548 1.15-7.25 1.47l2.191 3.683s-.195.245-.35.237c-1.687-.08-3.217-.152-5.207-.233" opacity="1"/><path fill="#64b5a8" d="M66.093 57.316a23 23 0 0 1-.77.063c-12.699-6.573-25.14-13.161-37.88-19.914 9.815-5.73 19.95-11.259 30.023-16.897 1.642-.919 3.015-2.318 4.529-3.847.19-.359.365-.365.802-.378.48.564.7 1.135 1.393 1.891.725.327.87.539.873 1.233.739 2.53 1.24 4.81 2.347 6.741 3.274 5.713 5.411 11.512 3.498 18.23-1.12 3.93-1.911 7.955-2.854 11.918-.004-.02.035-.012-.26.006-.764.33-1.232.642-1.701.954" opacity="1"/><path fill="#47a098" d="M75.178 55.442a240 240 0 0 1-5.741 1.898c-.547.037-.741.01-1.178-.282-.242-.264-.17-.714-.17-.714s-.04-.007.255-.158c7.205-7.715 14.115-15.28 21.18-22.925.35-.228.486-.42.74-.805.254-.283.43-.485.394-.533-.169-.234-.395-.426-.615-.816-.014-.183-.06-.548.21-.701.072-1.056-.126-1.958-.324-2.86.228.005.456.009 1.382-.054 2.037-3.153 3.377-6.238 4.717-9.324 6.606-.776 10.53 1.973 13.264 8.218 3.693 8.437 8.468 16.4 13.045 24.837.266.27.174.733-.37.841-3.66-1.454-6.887-2.834-9.86-4.633-2.913-1.763-5.541-2.127-8.897-.959-9.262 3.225-18.677 6.01-28.032 8.97" opacity="1"/><path fill="#11515e" d="M89.656 27.346c.47 1.102.669 2.004.143 2.99-5.04.023-9.354-.039-13.838-.384-3.733-3.821-7.296-7.359-10.86-10.896-.04-.283-.186-.495-.628-.687 4.389-3.54 15.014-2.81 18.443 1.221a414 414 0 0 0 6.74 7.756" opacity="1"/><path fill="#73b4aa" d="M95.866 17.89c-1.178 3.364-2.518 6.45-4.216 9.56-2.425-5.095-4.493-10.214-6.577-15.725-.017-.392.06-.477.06-.477 3.523 2.12 7.047 4.242 10.733 6.641m-10.852-6.517c-.151-.147-.26-.333-.37-.52.11.04.219.078.408.257.08.14.004.224-.038.263" opacity="1"/><path fill="#216279" d="M100.391 67.288c-1.106-1.254-1.872-2.541-2.532-3.65 1.702-.32 4.136-.78 6.98-1.284-1.097 1.603-2.602 3.252-4.448 4.934" opacity="1"/><path fill="#11515e" d="M75.432 55.727c9.1-3.244 18.516-6.03 27.778-9.255 3.356-1.168 5.984-.804 8.897.959 2.973 1.8 6.2 3.179 9.677 4.782 1.915 2.87-.206 2.078-1.479 1.807-2.94-.628-5.851-1.395-9.056-1.9-5.565.71-10.852 1.173-16.13 1.728-6.482.681-12.956 1.439-19.687 1.879" opacity="1"/><path fill="#91cabe" d="M67.794 56.363c.295-.019.223.431.174.653-.454.266-.86.31-1.57.328.164-.34.632-.65 1.396-.981m-2.731-36.896c3.602 3.126 7.165 6.664 10.739 10.8a30 30 0 0 1-1.929 5.102c-.02.046.097.03.638.006a1547 1547 0 0 0 14.859-2.034c-6.91 7.565-13.821 15.13-21.022 22.865.649-3.813 1.44-7.838 2.56-11.769 1.913-6.717-.224-12.516-3.498-18.229-1.107-1.931-1.608-4.21-2.347-6.741" opacity="1"/><path fill="#73b4aa" d="M74.01 35.306c.6-1.48 1.201-2.959 1.96-4.754 4.475-.255 8.79-.193 13.559-.062.454.07.5.434.51.947.023.732.035.952.048 1.17-.077.235-.213.426-.563.654-4.966.755-9.778 1.43-15.031 2.093-.442-.012-.483-.048-.483-.048" opacity="1"/><path fill="#91cabe" d="M533.245 88.726c1.385.109 2.943-.159 4.128.386 10.405 4.78 20.673 9.863 31.143 14.491 3.259 1.44 4.4 3.673 4.786 6.765.412 3.288.769 6.583 1.229 10.291.306 2.168.533 3.92.83 6.476.52 4.84.968 8.875 1.242 12.989a.78.78 0 0 1-.823-.176c-4.576-8.436-9.352-16.4-13.044-24.836-2.734-6.246-6.658-8.995-13.426-8.497-3.686-2.4-7.21-4.52-10.814-6.78-.19-.18-.299-.218-.408-.257.11.186.218.372.386.911 2.127 5.472 4.195 10.592 5.923 15.754-.568.038-.796.033-1.298-.172a414 414 0 0 1-6.739-7.755c-3.43-4.03-14.055-4.761-18.918-1.408-.502-.705-.72-1.275-.703-2.114 5.145-2.929 10.048-5.602 14.965-8.247 3.706-1.993 3.533-4.72 1.541-7.821" opacity="1" style="opacity:1" transform="translate(-453.444 -88.726)"/><path fill="#91cabe" d="M90.263 32.456c-.189-.067-.201-.287-.21-.836.21-.123.436.07.605.303.036.048-.14.25-.395.533" opacity="1"/><path fill="#73b4aa" d="M74.07 35.362c-.1.037-.217.053-.197.006.137-.062.178-.027.196-.006" opacity="1"/></g></svg>