<svg xmlns="http://www.w3.org/2000/svg" xml:space="preserve" width="103.642" height="96.412" viewBox="0 0 103.642 96.412"><path fill="#64b5a8" d="M.027 41.288c-.044-1.272-.087-2.545.332-3.779 1.829-.027 3.428.35 4.524-.229 10.615-5.602 21.146-11.364 31.745-16.717 1.36 1.453 2.677 2.544 4.293 3.807a309 309 0 0 1 7.689 17.265c-1.316 6.829-2.61 13.258-4.131 19.739-.516.202-.7.436-1.055.787-.458.047-.642.059-1.024-.208-9.123-4.955-17.97-9.784-27-14.248-4.967-2.457-10.239-4.298-15.373-6.417"/><path fill="#91cabe" d="M60.608.22C72.82 6.126 85.054 11.985 97.2 18.024c1.07.532 2.069 2.177 2.229 3.418 1.54 11.969 2.893 23.962 4.213 36.432-.087.482-.408.346-.63.204-.648-.7-1.075-1.26-1.49-2.185-4.44-9.424-9.237-18.335-13.213-27.599-2.566-5.98-6.152-9.139-12.92-8.614-4.056-2.643-7.94-5.024-11.824-7.406-.161 2.112.561 3.511 1.03 4.99 1.33 4.194 2.556 8.42 3.557 12.397-1.156-1.223-2.225-2.102-2.906-3.218-4.449-7.285-10.542-10.498-19.137-8.263-1.722.448-3.64.148-5.311-.107 2.821-2.2 5.236-4.938 8.204-5.83C55.366 10.334 58.47 5.888 60.608.22m35.47 27.862-3.218-8.453c-3.035 5.175-2.588 6.08 3.218 8.453"/><path fill="#216279" d="M58.468 82.095 22.246 96.412c-3.963-6.876-7.831-13.588-11.687-20.92.041-.813.07-1.005.458-1.066 2.596.666 4.822 1.257 7.073 1.726 7.441 1.549 14.803 3.008 22.536 1.25 5.595-1.271 11.434-1.444 17.141-2.265 5.982-.861 11.937-1.912 18.259-2.893 2.899-1.537 5.442-3.061 7.89-4.252-2.21 2.27-4.034 4.777-6.496 6.026-5.15 2.614-10.636 4.565-16.31 6.861-.731.256-1.137.439-1.78.613-.588.076-.803.293-.853.647.031.006-.01-.044-.01-.044z"/><path fill="#419d95" d="M10.659 74.296c-.03.191-.059.383-.172.853C7.002 64.317 3.6 53.207.112 41.692c5.05 1.715 10.32 3.556 15.288 6.013 9.03 4.464 17.877 9.293 26.785 14.53-10.52 4.394-21.023 8.227-31.526 12.06M36.584 20.2C26.03 25.916 15.498 31.678 4.883 37.28c-1.096.578-2.695.202-4.31-.025 1.648-8.087 3.46-15.904 5.524-23.653.348-1.31 1.783-2.332 3.345-3.177 8.73 2.455 16.852 4.524 24.903 6.844.949.273 1.502 1.92 2.24 2.931"/><path fill="#77bbb0" d="M36.628 20.563c-.78-1.373-1.334-3.02-2.283-3.294-8.05-2.32-16.173-4.39-24.515-6.822C21.366 7.534 33.126 4.83 44.928 2.325 49.932 1.263 55.023.616 60.342 0c-1.873 5.888-4.976 10.334-11.34 12.244-2.968.892-5.383 3.63-8.239 6.16-.156 1.288-.122 1.948-.12 3.006a94 94 0 0 0-.021 2.788c-1.317-1.091-2.633-2.182-3.994-3.635"/><path fill="#348b8b" d="M11.017 74.426c10.145-3.964 20.649-7.797 31.366-11.912.4-.294.583-.306 1.27-.316.503.003.966.038 1.146.266.694-.302 1.208-.832 1.652-1.401-.068-.04-.023-.192.238-.089.446.14.63.176.912.469.376.487.653.719 1.035 1.295 7.363 2.39 14.651 4.337 21.86 6.546 1.854.568 3.456 1.96 5.174 2.973-5.966.968-11.92 2.019-17.903 2.88-5.707.821-11.546.994-17.141 2.266-7.733 1.757-15.095.298-22.536-1.251-2.251-.469-4.477-1.06-7.073-1.726"/><path fill="#91cabe" d="M44.704 61.323c1.295-6.43 2.59-12.86 4.216-19.735.786-1.066 1.24-1.685 2.084-2.33 4.299-1.243 8.21-2.461 12.688-3.857-1.553-1.09-2.314-1.624-2.629-2.19 3.128-.07 5.81-.107 8.429.197-3.242 3.925-6.494 7.447-9.581 11.107-4.556 5.4-8.995 10.9-13.483 16.356 0 0-.045.152-.276.187-.618.13-1.005.225-1.407.306z"/><path fill="#86c4b8" d="M50.615 39.283c-.454.62-.909 1.24-1.673 1.906-2.78-5.518-5.251-11.082-8.02-16.819-.303-.969-.306-1.766.048-2.852 4.226 3.571 8.095 7.433 11.78 11.615-.835 2.265-1.485 4.207-2.135 6.15"/><path fill="#91cabe" d="M44.619 62.236s-.463-.035-.691-.072c-.15-.354.036-.588.55-.79.226-.05.253-.023.24.206-.013.23-.1.656-.1.656"/><path fill="#47a098" d="M46.69 60.974c4.226-5.56 8.665-11.059 13.22-16.459 3.088-3.66 6.34-7.182 9.597-11.071.08-.305.016-.26.38-.301 2.132-4.427 3.902-8.814 5.672-13.2 6.598-.787 10.184 2.372 12.75 8.352 3.976 9.264 8.773 18.175 12.856 27.593-4.02-1.598-7.585-3.757-11.37-5.415-1.646-.72-3.908-.973-5.609-.476-12.268 3.592-24.465 7.43-36.684 11.19a7 7 0 0 1-.813-.213"/><path fill="#11515e" d="M52.933 32.812C49.064 28.95 45.196 25.089 41 21.12c-.36-.768-.393-1.428-.392-2.417 1.862-.374 3.779-.074 5.501-.522 8.595-2.235 14.688.978 19.137 8.263.681 1.116 1.75 1.995 3 3.493.665 1.422.971 2.334 1.277 3.247 0 0 .063-.045.048-.081-2.698 0-5.38.038-8.938.027-3.15-.138-5.425-.228-7.7-.318m-5.332 28.631c12.12-4.016 24.317-7.854 36.585-11.446 1.7-.497 3.963-.244 5.609.476 3.785 1.658 7.35 3.817 11.36 5.779.782.566 1.209 1.126 1.857 1.827.052.443-.212.619-.867.57a17 17 0 0 0-1.524-.258c-.414-.157-.828-.313-1.737-.645a20 20 0 0 0-2.405-.366l-.334-.152s-.364.04-.793-.156c-2.226.252-4.023.7-6.034 1.133-.212-.014-.637-.051-.725-.422-2.703-.438-5.373-.882-7.923-.508-10.733 1.573-21.43 3.39-32.139 5.119a5.4 5.4 0 0 1-.93-.951"/><path fill="#73b4aa" d="M69.886 33.143c-.669-.872-.975-1.784-1.375-2.971-1.36-4.488-2.586-8.713-3.916-12.906-.469-1.48-1.191-2.88-1.03-4.99 3.884 2.38 7.768 4.762 11.823 7.405-1.599 4.648-3.369 9.035-5.502 13.462"/><path fill="#195469" d="M95.904 28.345c-5.632-2.638-6.079-3.542-3.044-8.717 1.318 3.462 2.268 5.957 3.044 8.717"/><path fill="#27727d" d="M48.636 62.738a685 685 0 0 1 32.034-5.463c2.55-.374 5.22.07 7.774.823a44 44 0 0 1-.715 3.306s-.042-.107-.272.023c-.424.714-.617 1.296-.81 1.879 0 0-.045-.062-.368-.008-.738 1.063-1.153 2.074-1.569 3.084 0 0-.033-.093-.246.027-.31.472-.408.825-.506 1.178 0 0 .015.044.034.058-2.524 1.538-5.068 3.062-7.966 4.6-2.074-1.001-3.676-2.392-5.531-2.96-7.208-2.21-14.496-4.157-21.86-6.547z"/><path fill="#216279" d="M84.98 66.214c.146-.843.561-1.853 1.336-2.907-.116.884-.592 1.811-1.337 2.907m4.339-8.009c.138.374.063.734-.104 1.36-.398.705-.703 1.145-1.247 1.711-.02-.746.197-1.62.564-2.808.15-.314.574-.277.787-.263m-2.425 4.925c-.053-.407.14-.99.621-1.708.067.42-.154.976-.62 1.708m-2.689 4.33c-.149-.226-.051-.579.308-1.054.154.228.047.578-.308 1.054"/><path fill="#27727d" d="M44.8 62.464c-.181-.228-.095-.655-.068-.87.415-.311.802-.406 1.489-.497-.214.535-.728 1.065-1.422 1.367"/><path fill="#64b5a8" d="M52.75 33.133c2.458-.23 4.733-.14 7.437.03 1.19.615 1.952 1.148 3.505 2.238-4.479 1.396-8.39 2.614-12.688 3.858.26-1.918.91-3.861 1.745-6.126"/></svg>