<svg xmlns="http://www.w3.org/2000/svg" xml:space="preserve" width="94.027" height="96.268" viewBox="0 0 94.027 96.268"><path fill="#91cabe" d="M47.23.055c9.14 1.748 18.28 3.496 27.591 5.833-3.12 8.15-6.411 15.711-9.97 23.387-.766.414-1.267.714-2.12.94-5.432-2.398-10.51-4.722-15.58-7.515.032-7.861.056-15.253.08-22.645"/><path fill="#5eafa6" d="M46.795 0c.412 7.447.388 14.839.364 22.691 0 .46.015.442-.308.584-5.728 2.428-11.133 4.713-16.619 6.636-3.87-8.276-7.657-16.188-11.446-24.1C27.977 3.855 37.168 1.9 46.795 0"/><path fill="#3f9490" d="M.907 33.21c.131-.365.263-.73.584-1.545.254-.783.32-1.116.384-1.448.14-.372.279-.743.66-1.683 1.076-2.505 1.91-4.442 3.051-6.154.724 3.317 1.69 6.454 1.434 9.488-.461 5.444 1.677 8.283 6.843 9.715 2.916.808 5.562 2.593 8.302 4.27-5.292 7.079-10.607 13.786-15.763 20.613-.752.995-.746 2.562-1.146 4.076-.055.211-.188.627-.42.763-.417.44-.602.743-1.013 1.008-.225-.039-.68-.066-.68-.066a23 23 0 0 1-.733-1.432C1.444 58.896.722 47.529 0 36.16c.125-.324.25-.647.547-1.408.234-.806.297-1.175.36-1.543"/><path fill="#277e8a" d="M4.049 72.351c.185-.303.37-.606 1.231-1.044 2.434-.102 4.192-.07 6.015.33 10.014 2.408 19.963 4.45 29.884 6.5-.028.009-.008-.047.058.144.35.084.634-.023 1.261-.1 1.777.703 3.21 1.374 4.65 2.508.006 3.941.319 7.463-.142 10.88-.196 1.45-2.016 2.68-3.097 4.011 0 0-.034.059-.085-.294-2.245-1.005-4.439-1.656-6.985-2.36C28.4 88.6 20.31 84.33 12.22 80.059c0 0-.045.084-.154-.237-1.328-1.283-2.546-2.247-3.764-3.21-.072-.252-.23-.427-.785-.794-.642-.45-.974-.63-1.306-.81 0 0-.004.1-.045-.164-.355-.424-.67-.585-.984-.745 0 0-.019.057-.082-.198-.353-.422-.644-.588-.935-.755 0 0-.007.01-.021-.195-.015-.204-.094-.6-.094-.6"/><path fill="#419d95" d="M18.5 5.952c4.075 7.77 7.863 15.683 11.712 23.953.061.358.04.378-.322.298-5.525-2.927-10.63-5.887-15.89-8.543-1.35-.682-3.184-.409-5.09-.715-1.177-.767-2.062-1.395-2.872-2.347 2.248-2.653 4.422-4.98 6.595-7.308 1.86-1.731 3.72-3.463 5.867-5.337"/><path fill="#5daaa3" d="M65.118 29.16a5452 5452 0 0 0 9.994-23.053c1.468.709 2.818 1.787 4.45 3.008 2.673 2.858 5.066 5.574 7.556 8.925.078 1.048.06 1.461-.213 1.915-.59.111-.924.181-1.568.319-.592.362-.874.656-1.16.917-.006-.034.054-.002-.19.095-.43.385-.616.671-.802.92.002-.038.061.01-.307-.013-1.128.674-1.888 1.372-2.606 2.079.042.008.082.082-.322.012-5.213 1.579-10.023 3.228-14.832 4.877"/><path fill="#27727d" d="M44.124 95.852c.866-1.602 2.686-2.833 2.882-4.283.46-3.417.148-6.939.495-10.943 10.712-7.36 21.81-11.312 34.48-9.518 2.437.345 4.965.037 7.702.048.416.035.582.052.748.07-2.86 2.967-5.72 5.934-8.538 9.29.042.386-.046.374-.046.374-10.493 5.03-20.94 10.16-31.524 14.991-1.68.768-3.973.196-6.199-.029"/><path fill="#348b8b" d="M90.816 71.112c-.551.096-.717.08-1.228-.163-.345-.226-.464-.664-.443-1.041-.86-1.882-1.591-3.5-2.644-4.872-5.063-6.599-10.212-13.13-15.32-19.999-.014-.521-.036-.73-.04-.912.02.026-.035-.006.352.022 14.057-3.868 15.242-5.366 15.622-19.285.045-1.648.031-3.298.045-4.947.018-.413.036-.827.038-1.55 4.131 8.869 8.108 17.978 6.44 28.58-1.252 7.95-1.656 16.032-2.822 24.167"/><path fill="#27727d" d="M38.667 94.032c-.595-.28-.827-.516-1.267-.903 1.985.501 4.18 1.152 6.392 2.168-1.574-.165-3.168-.694-5.125-1.265"/><path fill="#5eafa6" d="M47.151 23.16c5.07 2.333 10.148 4.657 15.603 7.36.385.788.394 1.198.404 2.08-.025 11.07-.05 21.67-.371 32.447-4.905 3.523-9.514 6.865-14.498 9.977-.628-1.831-1.096-3.431-1.1-5.032-.05-15.62-.022-31.24-.015-46.859 0 0-.014.019-.023.028m5.905 15.762 1.215 4.002c2.575-2.628 5.308-4.326 2-8.127-1.15 1.274-2.097 2.322-3.215 4.125"/><path fill="#77bbb0" d="M63.158 32.128c-.01-.41-.019-.82-.051-1.534.477-.605.978-.905 1.745-1.319 5.075-1.763 9.885-3.412 14.9-4.711-2.744 6.752-5.695 13.154-8.646 19.556 0 0 .054.03-.218-.1-.439-.055-.606.018-1.087-.05-2.423-4.042-4.533-7.942-6.643-11.842"/><path fill="#91cabe" d="M46.851 23.275c.316 15.478.288 31.097.337 46.717.005 1.6.473 3.2.826 5.302-1.313.054-2.922-.102-4.106-.893-4.643-3.1-9.153-6.4-13.85-9.835-.469-1.096-1.322-2.53-1.052-2.787 4.04-3.853 1.86-8.713 2.035-13.054.209-5.175-.512-10.387-.831-15.942.014-1.072.028-1.786.043-2.5 0 0 .02-.02.04-.015a5973 5973 0 0 0 16.558-6.993M36.055 38.804l3.29 4.317c2.204-3.317 2.119-5.84-1.027-7.529-.303-.162-1.675 1.667-2.263 3.212"/><path fill="#77bbb0" d="M30.211 33.142c.318 5.196 1.039 10.408.83 15.583-.175 4.341 2.005 9.201-2.035 13.054-.27.257.583 1.69.653 2.9-8.29 2.1-16.319 3.875-24.348 5.652.345-1.303.34-2.87 1.09-3.865 5.157-6.827 10.472-13.534 16.072-20.795.537-1.17.736-1.826 1.268-2.544 2.378-3.37 4.424-6.678 6.47-9.985"/><path fill="#11515e" d="M5.256 70.542c8.084-1.988 16.113-3.764 24.54-5.653 4.96 3.112 9.469 6.413 14.112 9.512 1.184.791 2.793.946 4.481 1.124 4.884-3.613 9.493-6.955 14.823-10.428 9.118 1.643 17.515 3.415 25.912 5.188 0 0 .119.438.214.646-2.392.214-4.92.522-7.357.177-12.67-1.794-23.768 2.158-34.487 9.056-1.786-.609-3.22-1.28-5.24-2.013-.589-.062-1.083-.06-1.083-.06s-.02.055-.206-.222c-2.374-1.46-4.494-2.796-6.766-3.785-3.138-1.367-6.32-3.191-9.609-3.51-4.39-.426-8.9.404-13.36.695-1.758-.032-3.516-.064-5.718-.098-.444-.002-.31-.418-.256-.629"/><path fill="#1a4b59" d="M23.41 43.189c-.2.656-.4 1.311-.909 2.15-3.076-1.163-5.722-2.948-8.638-3.756-5.166-1.432-7.304-4.271-6.843-9.715.257-3.034-.71-6.171-1.434-9.488-.239-1.136-.17-2.046.139-3.207 1.123.376 2.008 1.004 3.437 1.992 6.126 3.416 9.11 8.361 10.962 14.26.838 2.669 2.175 5.18 3.285 7.764"/><path fill="#47a098" d="M11.295 71.636c4.394-.658 8.906-1.488 13.295-1.062 3.29.319 6.471 2.143 9.609 3.51 2.272.99 4.392 2.326 6.794 3.776-9.735-1.773-19.684-3.815-29.698-6.224m29.942 6.645c-.066-.19.428-.192.673-.161-.039.138-.323.245-.673.161"/><path fill="#5eafa6" d="M23.741 43.127c-1.442-2.521-2.78-5.033-3.617-7.702-1.852-5.899-4.836-10.844-10.668-14.12 1.36-.055 3.193-.328 4.544.354 5.259 2.657 10.365 5.617 15.89 8.544.348.794.333 1.508.32 2.58-2.045 3.666-4.09 6.974-6.469 10.344"/><path fill="#11515e" d="M71.493 44.147c2.564-6.43 5.515-12.831 8.664-19.513.197-.28.157-.354.432-.398 1.069-.703 1.863-1.361 2.657-2.02 0 0-.059-.048.203-.087.435-.339.608-.64.782-.94 0 0-.06-.032.25-.06.594-.327.88-.625 1.165-.923.335-.07.67-.14 1.259-.25.241 1.608.255 3.258.21 4.906-.38 13.919-1.565 15.417-15.622 19.285"/><path fill="#77bbb0" d="M82.878 22.193c-.426.682-1.22 1.34-2.33 2.035.442-.663 1.202-1.36 2.33-2.035m2.459-1.919q.035.346-.852.888-.034-.346.852-.888m-1.349 1.012c.07.204-.104.504-.541.881-.076-.21.11-.496.54-.88"/><path fill="#419d95" d="M89.145 69.908c-8.418-1.396-16.815-3.168-25.638-4.99-.4-10.649-.374-21.248-.35-32.318 2.11 3.428 4.22 7.328 6.744 11.634.699.643.984.88 1.27 1.116 5.118 6.556 10.267 13.087 15.33 19.686 1.053 1.372 1.784 2.99 2.644 4.872"/><path fill="#11515e" d="M71.18 45.037c-.295.077-.58-.16-.966-.66.068-.339.235-.413.655-.382.276.313.298.52.311 1.042m-18.039-6.491c1.033-1.426 1.98-2.474 3.13-3.748 3.308 3.801.575 5.499-2 8.127-.527-1.735-.871-2.868-1.13-4.379"/><path fill="#1d505e" d="M35.911 38.484c.732-1.225 2.104-3.054 2.407-2.892 3.146 1.688 3.23 4.212 1.027 7.529-1.182-1.55-2.236-2.934-3.434-4.637"/></svg>