<svg xmlns="http://www.w3.org/2000/svg" xml:space="preserve" width="102.698" height="91.002" viewBox="0 0 102.698 91.002"><path fill="#1d505e" d="M805.185 579.116c.47.2.938.401 2.17.782 3.082 1.025 5.722 1.483 7.646 2.805 2.845 1.953 4.412 1.364 5.77-1.237 0 0-.156-.099.262-.173 4.863-3.66 9.31-7.246 14.082-10.7 1.528 1.35 2.73 2.57 3.788 4.12-2.076 2.362-4.007 4.396-5.938 6.43a773 773 0 0 0-6.896 6.16c-.75 2.045-1.694 3.89-1.078 5.048 3.313 6.218 3.518 12.52 1.559 19.03 0 0-.3.264-.614.733-1.393 2.884-4.37 5.44.31 7.43l6.748 6.135c2.521 2.323 4.529 4.179 6.518 6.415-1.604 1.941-3.189 3.503-5.081 4.843-4.374-3.839-8.44-7.457-12.506-11.075a86 86 0 0 0-3.004-3.004c-1.107-.206-1.706-.001-2.306.203 0 0-.49.044-.946.215-.845.314-1.092.57-1.198.938-.924.313-1.848.625-3.45 1.114-1.063.42-1.449.665-1.835.909-.722.05-1.444.1-2.854.222-1.336.27-1.983.469-2.63.667 0 0 .037-.09-.437-.194-2.823-.206-5.172-.309-7.521-.412-.286-.225-.614-.37-1.509-.654-1.02-.293-1.52-.364-2.019-.435 0 0-.285-.273-.679-.51a8.6 8.6 0 0 0-1.676-.499s-.32-.287-.717-.55a9 9 0 0 0-1.656-.612s-.142-.269-.539-.552c-1.017-.073-1.638.136-2.26.346-1.284 1.115-2.568 2.23-4.048 3.65-3.643 3.476-7.09 6.649-11.12 9.89-2.254-1.532-3.926-3.131-5.598-4.731l16.411-14.508c-1.357-3.05-2.517-5.655-3.364-8.93.795-5.668 1.279-10.664 1.762-15.66 0 0 .173-.052.314-.004.288.008.437-.03.586-.07q-.24-.324-.477-.649c.194-.822.388-1.644.533-3.047-3.435-3.636-6.82-6.69-10.207-9.744-.654-.49-1.309-.979-2.034-2.182 1.293-2.153 2.656-3.591 4.02-5.03 0 0 .006.108.01.458.642.654 1.281.959 1.92 1.263 2.647 2.235 5.294 4.47 8.227 7.322.659.876 1.03 1.133 1.402 1.39 1.578.199 3.301.862 4.703.499 2.737-.71 5.294-1.993 8.281-3.273.762-.258 1.17-.282 2.345-.387 2.789-.12 4.81-.157 6.831-.195m-17.71 12.931s.048.023-.492.252c-.212.298-.424.596-.666.82 0 0 .071.044-.552.369a37 37 0 0 1-.632 1.782s.034.04-.922.023c-1.272 1.25-3.783 2.694-3.59 3.716.655 3.476 2.263 6.804 3.982 10.592.183.561.365 1.122.589 2.386.475.492.95.983 2.084 1.857 5.437 4.63 11.652 7.467 19.193 5.416 7.832-2.13 12.696-7.08 13.485-14.595.786-7.499-3.577-12.79-9.58-17.436-6.78-4.386-13.443-3.878-18.6 1.574 0 0-.488.09-1.118.26-.265.304-.53.608-1.045 1.361-.23.28-.528.469-1.44.791-.224.292-.448.584-.695.832" style="stroke-width:1.12638" transform="translate(-750.085 -557.587)"/><path fill="#3f9490" d="M763.428 631.875c2.167 1.588 3.839 3.187 5.816 4.972.836 4.444.911 9.192-4.243 10.614-3.438.949-8.46.537-11.422-1.187-5.911-3.44-3.94-11.405 3.05-13.498 1.992-.596 4.197-.609 6.8-.901m-10.038 9.654c1.138 1.195 2.104 3.174 3.45 3.419 2.69.49 5.904.672 8.28-.289 1.378-.557 2.477-3.795 2.022-5.443-.532-1.93-2.532-4.158-4.532-4.991-4.57-1.903-8.444 1.009-9.22 7.304" style="stroke-width:1.12638" transform="translate(-750.085 -557.587)"/><path fill="#c0a76b" d="M763.972 574.852c-4.849.646-9.478-.13-11.428-4.488-1.113-2.486-1.161-6.126.04-8.533 1.867-3.74 6.15-5.073 10.565-3.687 5.624 1.764 6.8 5.95 5.827 11.346-.928.79-1.629 1.081-2.455.96-.138-2.463.21-4.582-.237-6.551-.923-4.059-4.763-5.232-8.004-3.72-2.335 1.09-5.035 4.801-4.61 6.83.908 4.341 5.078 6.326 10.192 6.167.036.782.073 1.229.11 1.675" style="stroke-width:1.12638" transform="translate(-750.085 -557.587)"/><path fill="#1a4b59" d="M778.422 593.049a116 116 0 0 1-1.543 14.988c-2.542-4.955-1.054-9.865 1.543-14.988m-8.779-13.463c3.224 2.72 6.61 5.773 9.758 9.043-3.358-2.759-6.477-5.733-9.758-9.043m-2.996-8.724c.7-.29 1.401-.582 2.404-.904.892.511 1.482 1.054 2.244 1.839-1.192 1.68-2.555 3.12-3.953 4.992-.944-.244-1.855-.923-3.068-1.77-.339-.614-.375-1.06-.367-1.85.046-.34.095-.41.382-.447.683-.174.927-.431.946-.93-.074-.122.088.125.375.045.504-.373.72-.666.96-.968.024-.01.076-.006.076-.006zm6.613 2.63c-.503-.037-1.142-.341-1.725-.997.567.008 1.077.369 1.724.997m5.721 18.678c.334.089.493.305.651.521-.148.04-.297.079-.676.061-.23-.056-.15-.456.025-.583m3.91-9.999q-.354.066-1.117-.765.355-.066 1.118.764" style="stroke-width:1.12638" transform="translate(-750.085 -557.587)"/><path fill="#63a872" d="M785.151 611.283a49 49 0 0 0-.834-2.37c.092-4.993.471-9.299.85-13.604 0 0-.034-.04.245-.218.511-.762.744-1.345.976-1.928 0 0-.071-.045.216-.118.498-.374.709-.674.92-.975 0 0-.048-.023.228-.122.504-.386.733-.672.962-.958.369-.097.667-.286 1.308-.912.696-.626.98-.905 1.264-1.185 0 0 .489-.09 1.136-.312 6.279-.431 11.91-.64 17.543-.85 6.412 4.145 10.775 9.435 9.989 16.933-.79 7.517-5.653 12.465-13.485 14.596-7.54 2.051-13.756-.787-19.637-5.92a90 90 0 0 1-1.68-2.057m54.36 20.811c3.182.24 6.82.173 9.399 1.643 3.84 2.19 4.838 6.12 2.93 9.973-1.908 3.852-5.66 5.53-10.187 4.65-4.606-.895-6.883-3.851-6.85-8.18.005-.712.056-1.424.01-2.579 1.51-2.004 3.095-3.566 4.698-5.507" style="stroke-width:1.12638" transform="translate(-750.085 -557.587)"/><path fill="#c0a76b" d="M835.115 570.593c-.393-1.55-.511-2.968-.518-4.386-.024-4.882 2.877-8.145 7.571-8.57 5.148-.466 9.52 2.376 10.36 6.734.883 4.59-1.75 8.66-6.687 9.876-1.833.452-3.847.296-6.286.277-1.71-1.36-2.912-2.58-4.44-3.931m14.508-7.323c-4.814-4.669-9.85-5.125-11.562-.734-.795 2.039-.148 5.155 1.143 7.055 1 1.471 4.293 2.844 6.078 2.446 4.177-.93 5.312-4.243 4.341-8.767" style="stroke-width:1.12638" transform="translate(-750.085 -557.587)"/><path fill="#1a4b59" d="M784.689 595.3c.1 4.314-.28 8.62-.609 13.41-1.196-2.897-2.804-6.225-3.46-9.701-.192-1.023 2.319-2.466 4.069-3.708m25.481-7.821c-5.837.46-11.47.67-17.522 1.006 4.283-5.135 10.945-5.643 17.521-1.006m-24.998 24.155c.393.166.805.684 1.332 1.514-.361-.179-.836-.67-1.332-1.514m.906-18.31c.079.42-.154 1.004-.655 1.786-.065-.409.139-1.016.655-1.786m1.176-1.14q.09.28-.634.897-.09-.28.634-.897m3.718-3.207c.03.195-.253.474-.824.875-.021-.182.244-.487.824-.875m-2.529 2.124c.043.174-.186.46-.678.868-.04-.171.183-.463.678-.868" style="stroke-width:1.12638" transform="translate(-750.085 -557.587)"/><path fill="#2e8dc0" d="M753.313 641.11c.854-5.876 4.727-8.788 9.298-6.885 2 .833 4 3.061 4.532 4.99.455 1.649-.644 4.887-2.022 5.444-2.376.96-5.59.778-8.28.289-1.346-.245-2.312-2.224-3.528-3.838" style="stroke-width:1.12638" transform="translate(-750.085 -557.587)"/><path fill="#f0b547" d="M763.908 572.834c-5.16.5-9.33-1.484-10.238-5.824-.425-2.03 2.275-5.742 4.61-6.83 3.241-1.513 7.081-.34 8.004 3.719.447 1.97.1 4.088.237 6.551.126.412.073.41-.283.432-.543.36-.73.698-.915 1.035 0 0-.162-.247-.397-.127a6.7 6.7 0 0 0-.924.969s-.049.07-.094.075" style="stroke-width:1.12638" transform="translate(-750.085 -557.587)"/><path fill="#c0a76b" d="M764.29 572.723c-.058-.248.172-.53.711-.811.215.379-.03.636-.712.81m1.321-.885c-.101-.257.085-.595.604-.946.116.28-.1.573-.604.946" style="stroke-width:1.12638" transform="translate(-750.085 -557.587)"/><path fill="#eb7e39" d="M849.812 563.661c.782 4.133-.353 7.446-4.53 8.376-1.785.398-5.079-.975-6.078-2.446-1.29-1.9-1.938-5.016-1.143-7.055 1.712-4.39 6.748-3.935 11.75 1.125" style="stroke-width:1.12638" transform="translate(-750.085 -557.587)"/></svg>