<svg xmlns="http://www.w3.org/2000/svg" xml:space="preserve" width="95.042" height="92.933" viewBox="0 0 95.042 92.933"><path fill="#1c4c59" d="M71.962 40.39a78 78 0 0 0 .366 3.9c-.955 5.752-2.008 11.157-3.227 17.414 3.726 3.77 8.368 8.465 13.036 13.778-1.62 2.138-3.265 3.657-5.095 5.033-.186-.144-.626-.305-.626-.305a161 161 0 0 1-3.896-3.812 485 485 0 0 0-7.21-6.89 98 98 0 0 0-1.755-2.104c-.67-.484-.986-.58-1.301-.678-8.4 4.78-17.153 5.318-26.715 1.718-1.945-.582-3.387-.692-4.83-.801 0 0-.272.16-.632.421-3.593 3.669-6.826 7.076-10.059 10.483-.33.008-.575.155-1.063.763-.75.685-1.175 1.049-1.874 1.27-1.02-.785-1.768-1.428-2.583-2.094-.068-.023-.112-.16-.169-.46-.738-1.017-1.42-1.733-1.933-2.735 3.45-3.717 6.734-7.15 10.018-10.583l4.366-3.85-1.42-.043c-.858-5.967-1.716-11.934-2.585-18.32-.012-.417-.03-.513.115-.779.185-.865.225-1.464.266-2.063.21-.389.419-.778.84-1.786.991-2.265 1.769-3.91 2.764-6.015-4.792-4.697-9.643-9.452-14.321-14.486 1.78-1.765 3.386-3.252 5.245-4.564a204 204 0 0 1 3.449 3s.077-.115.151.23c3.633 3.747 7.19 7.147 10.815 10.611 10.435-7.733 20.745-7.233 30.868-.404l12.6-12.297s-.335-.18.085-.178c.848-.349 1.276-.7 1.977-1.027.632.067.992.11 1.413.49 1.095 1.388 2.126 2.439 3.182 3.758.05.445.078.622-.06 1.083-4.79 4.898-9.413 9.511-14.019 14.108l2.451 4.646c.142.422.284.844.588 1.874.367.97.573 1.332.778 1.694m-13.025-7.292c-.994-.545-1.976-1.113-2.983-1.633-8.842-4.563-17.163-2.779-22.78 4.875-4.87 6.634-3.943 15.723 2.54 22.859 8.593 6.413 18.74 5.822 25.031-1.457 6.303-7.292 5.694-17.127-1.808-24.644"/><path fill="#63a872" d="M77.227 80.658c1.645-1.52 3.29-3.038 5.069-4.883 4.212-.123 8.54-.635 11.518 3.732 1.864 6.936.026 11.6-4.771 13.021-5.028 1.49-9.364-1.16-11.91-7.553-.086-.798-.05-1.25.052-2.352.058-1.088.05-1.527.042-1.965"/><path fill="#348b8b" d="M14.566 78.508c.747.644 1.495 1.287 2.482 2.39.405 1.27.57 2.078.735 2.886.032.392.064.784-.067 1.74-1.269 4.444-3.732 6.786-7.824 7.166-7.626.708-11.389-5.506-8.425-13.866 0 0-.075-.127.182-.15.414-.337.571-.65.728-.964 0 0-.082-.034.201-.068.52-.315.757-.596.993-.876.72-.336 1.438-.67 2.85-1.109 2.398-.095 4.103-.088 5.808-.08.68.716 1.362 1.432 1.697 2.497-4.132-.75-7.933-1.454-10.592 2.437-2.819 4.124-.967 7.668 4.226 8.443 6.505.972 8.45-.692 7.676-6.603-.168-1.288-.444-2.562-.67-3.843"/><path fill="#cd6935" d="M59.26 33.744c7.18 6.871 7.788 16.706 1.485 23.998-6.292 7.28-16.438 7.87-24.937.921 3.645-4.55 7.07-8.685 10.78-12.547 4.087-4.255 8.437-8.259 12.672-12.372"/><path fill="#eb7e39" d="M59.099 33.42c-4.074 4.437-8.424 8.44-12.511 12.696-3.71 3.862-7.135 7.997-10.915 12.238-6.442-6.291-7.37-15.38-2.5-22.014 5.618-7.654 13.939-9.438 22.781-4.875a21 21 0 0 1 3.145 1.956"/><path fill="#f0b547" d="M12.439 17.366C5.818 18.773 1.247 16.37.23 11.32-.876 5.812 2.075 1.264 7.449.194c6.345-1.262 10.827 4.067 9.912 12.067-1.536 1.853-3.143 3.34-4.922 5.105"/><path fill="#2e8dc0" d="M82.2 16.717c-1.032-1.051-2.063-2.102-3.077-3.944.253-3.687.487-6.583.721-9.48 0 0 .03.014.344.014.469-.34.625-.678.78-1.016 0 0-.036.007.377.102 1.07.032 1.74.035 2.38-.107 4.588-1.017 8.138.896 9.292 5.04 1.103 3.958-1.258 7.405-5.938 8.539-1.601.388-3.251.573-4.879.852"/><path fill="#3f9490" d="M82.224 16.985c1.604-.547 3.254-.732 4.855-1.12 4.68-1.134 7.041-4.58 5.938-8.54-1.154-4.143-4.704-6.056-9.292-5.039-.64.142-1.31.139-2.376.089 2.937-3.234 6.61-2.955 9.907-.429 3.247 2.489 4.762 6.072 3.115 10.141-1.553 3.834-4.396 6.16-8.842 5.828-.824-.062-1.647-.125-2.835-.16-.392-.148-.42-.325-.47-.77M79.526 3.46c.084 2.73-.15 5.626-.465 8.976-.44.41-.8.368-1.432.301.345-3.053.961-6.082 1.897-9.277"/><path fill="#2e8dc0" d="M14.498 78.486c.294 1.303.57 2.577.738 3.865.774 5.91-1.171 7.575-7.676 6.603-5.193-.775-7.045-4.319-4.227-8.443 2.66-3.891 6.461-3.187 10.65-2.136.403-.048.447.088.515.11"/><path fill="#3f9490" d="M80.701 2.355c.112.274-.044.612-.502.964-.122-.292.056-.596.502-.964"/></svg>