<svg xmlns="http://www.w3.org/2000/svg" xml:space="preserve" width="91.832" height="90.76" viewBox="0 0 91.832 90.76"><path fill="#195469" d="M46.202 19.396c.445.075.889.15 1.666.158 4.526 1.525 8.718 3.119 13.655 4.996a31 31 0 0 1 3.33-2.203c.799-.454.984-.79 1.17-1.125 0 0 .028.145.24.064.389-.408.566-.735.744-1.061 0 0 .027.11.341.136 2.724-1.633 5.133-3.294 8.012-5.28.587 2.208.989 3.717 1.368 5.238-.022.01-.064.037-.4-.18-1.586 1.368-2.838 2.953-4.233 4.842a258 258 0 0 1-5.168 7.682c.046.33.238.551.382.785-.046.015-.006-.074-.015.25.354.804.716 1.284 1.031 1.766-.048.002-.026-.09-.042.219.273.817.563 1.324.917 2.027.064.196.073.608.046 1.086-.012 4.945.004 9.412.005 14.1-.015.22-.152.64-.387.834-.356.78-.477 1.366-.607 2.242-.297.724-.586 1.159-1.174 1.743-1.998 2.367-2.565 4.236 1.123 4.801-.005.001-.003-.008.039.314.519.572.996.822 1.474 1.125 0 .053.097.096.022.387.261.396.597.5.953.651.02.046.12.049-.037.409.727 2.39 1.611 4.421 2.496 6.452l-.893.62a721 721 0 0 1-9.188-4.86c.053-.028.002.079.02-.28-.949-4.074-3.176-2.307-4.87-1.29-5.168 3.096-10.734 4.143-16.595 3.313-2.991-.423-5.894-1.475-8.837-2.295 0-.052-.086.006-.054-.337-1.602-2.1-3.181-3.143-4.45-.062-.01-.06.113-.048-.153.04-.45.402-.635.714-.827.976-.007-.051.092-.024-.268-.044-5.306 2.327-5.306 2.327-5.417-3.592 0 0 .073.042.394.047.439-.343.557-.69.676-1.037 0 0 .476.097.604.09 1.936-1.29 4.806-2.389.937-5.046-.693-2.11-1.375-3.845-2.05-6.046.17-5.935.333-11.404.498-16.901.002-.028-.036-.068.324-.085.436-.647.512-1.276.627-1.94.038-.035.042-.138.406-.08.915-.629 1.464-1.314 2.014-2-.705-.434-1.41-.867-2.058-1.337.056-.036.012.09-.048-.189-.374-.467-.688-.656-.936-.854.066-.01.032.118-.043-.157-.393-.46-.711-.645-1.029-.83 0 0 .133-.034.046-.244-.411-.385-.736-.562-1.06-.738 0 0 .136-.031.052-.244-.408-.393-.732-.574-1.056-.755 0 0 .112-.025.126-.353-1.071-1.115-2.156-1.902-3.499-2.829-.965-1.06-1.67-1.98-2.358-3.282.557-3.11 1.285-5.044 4.374-2.252.933.843 2.572.906 3.836 1.347-.051.02-.028-.088.04.192.384.471.7.663.947.869-.07.013-.05-.128.035.151.406.48.726.68 1.259.94.478.24.611.491.706 1.076.395.472.695.68 1.292 1.028 1.18 1.07 2.066 2 1.958 1.887zm-13.85 39.637c.2.254.447.444.883 1.273 7.246 7.15 20.198 7.118 27.215-1.457 10.547-12.89 4.078-27.882-8.527-32.247-10.147-3.514-19.727.519-24.776 10.06-3.82 7.22-2.16 16.004 4.208 21.383.197.266.45.46.998.988m32.329-34.936s-.064-.109 0 0"/><path fill="#2a484b" d="m76.75 20.308-1.39-5.226c-2.879 1.985-5.288 3.646-8.064 5.257-.16-.388.047-.725.39-1.331 1.236-1.3 2.333-2.332 3.853-3.764a132 132 0 0 0 2.552-2.734s.072.138.461.227c1.91 1.707 3.43 3.324 4.95 4.942 0 0-.237.37-.568.688-.948.86-1.566 1.4-2.183 1.94m-9.998.023c.076.221-.101.548-.562.939-.087-.235.11-.535.562-.94m-.994 1.008c.078.22-.107.556-.575.985-.084-.228.113-.55.575-.985"/><path fill="#c0a76b" d="M79.845 17.62c-1.864-1.559-3.384-3.176-5.217-4.9C73.164 3.834 78.865-2.003 86.01.64c4.245 1.57 6.586 5.683 5.597 9.835-1.136 4.765-5.44 7.436-11.762 7.145m9.472-6.665c1.23-4.281-.313-7.518-4.237-9.006-4.276-1.621-6.885.971-8.43 4.109-1.887 3.827.414 6.419 3.816 8.418 4.13 2.428 6.478.61 8.85-3.52"/><path fill="#1a4b59" d="M27.039 67.635c-2.847 3.857-6.054 7.695-9.797 11.64-.978-.218-1.418-.544-1.883-.873-.024-.003-.07-.02-.152-.246-.25-.51-.476-.732-.914-1.137-.746-.705-1.34-1.166-1.94-1.894-.013-.623-.023-.979-.033-1.334 2.613-2.851 5.225-5.702 7.98-8.86.46-.318.722-.442 1.125-.785.307 5.816.307 5.816 5.614 3.489"/><path fill="#3f9490" d="M15.384 78.405c.44.326.88.652 1.584 1.057.252 1.143.241 2.208.318 3.664-.158 1.072-.404 1.751-.727 2.784-2.313 3.717-5.353 5.326-9.434 4.596-4.636-.83-7.626-4.812-7.055-9.352C.622 76.761 4.608 73.67 9.285 74c.812.057 1.625.094 2.737-.035.308.181.318.537-.102 1.201-1.419.325-2.42.244-3.395.374-4.125.547-6.763 2.46-6.353 7.104.347 3.94 2.45 5.908 6.425 5.915 4.3.007 6.45-2.134 6.648-6.698.05-1.152.093-2.304.139-3.456"/><path fill="#1a4b59" d="M38.695 70.024a66 66 0 0 1-5.679-2.7c2.717.558 5.62 1.61 8.612 2.033 5.86.83 11.427-.217 16.594-3.314 1.695-1.016 3.922-2.783 4.87 1.29-2.822-2.616-4.597.788-7.048 1.728-.234.272-.604.252-1.056.386a9.4 9.4 0 0 0-1.51.83l-.456-.109s-.446.15-1.033.26c-4.32.136-8.053.164-11.786.19-.394-.185-.788-.371-1.508-.594"/><path fill="#2a484b" d="M20.497 50.555c.566-5 1.143-9.912 1.95-15.101.068 5.193-.095 10.662-.454 16.584-.196.451-.575.409-.575.409s-.188.056-.258-.25c-.285-.67-.5-1.033-.716-1.396 0 0 .065-.16.053-.246"/><path fill="#1a4b59" d="M21.38 52.694c.038-.247.417-.205.606-.191.871 1.749 1.553 3.484 2.215 5.624-.02.404-.084.463-.327.278-.685-.847-1.126-1.51-1.568-2.172 0 0 .015-.413-.109-.881-.36-.787-.597-1.106-.833-1.424-.007-.33-.014-.658.017-1.234"/><path fill="#1a4b59" d="M24.213 58.501c3.889 2.253 1.018 3.351-1.156 4.585-.167-.352.031-.651.657-1.368.42-1.321.411-2.225.403-3.128z"/><path fill="#2a484b" d="M17.283 23.658c-.288-.134-.348-.576-.413-.79a12.3 12.3 0 0 1 3.154 2.53c-.84-.281-1.646-.944-2.74-1.74m2.739 2.295c.22-.075.545.106.939.568-.232.083-.533-.115-.939-.568m1.005.998c.22-.079.544.098.946.551-.228.086-.534-.105-.946-.55m1.938 1.556c.075.275-.348.163-.565.133s-.327-.5-.395-.732c.25-.047.567.138.96.599m8.144 29.123c-6.123-4.965-7.783-13.749-3.963-20.968 5.05-9.542 14.63-13.576 24.777-10.061 12.605 4.365 19.074 19.358 8.527 32.246-7.017 8.575-19.97 8.607-27.226 1.05-.011-.406.1-.523.326-.526.227-.003.662-.127.958.09 1.593.941 2.837 1.79 4.197 2.366 7.687 3.257 17.337.485 21.953-6.478 4.354-6.569 3.218-17.975-2.362-22.212-7.143-6.626-14.312-7.452-22.421-2.87-5.83 3.293-9.18 11.713-7.384 19.178.654 2.718 1.892 5.295 2.801 7.998-.063.06-.183.187-.183.187"/><path fill="#1a4b59" d="M70.657 65.402c.425-.245.665-.087 1.227.473 2.694 2.781 5.038 5.201 7.358 7.961-1.653 2.099-3.28 3.858-5.113 5.351-3.415-3.14-6.626-6.016-9.836-8.891-.376-.69-.752-1.378-1.2-2.36 3.008 1.317 6.088 2.928 9.167 4.538l.894-.62c-.885-2.03-1.77-4.062-2.497-6.452"/><path fill="#2a484b" d="M14.189 19.233c-.792-.288-1.564-.957-2.558-2.08 1.655-1.812 3.532-3.17 5.408-4.526 1.716 1.692 3.432 3.384 5.28 5.378-1.185-.118-2.824-.18-3.757-1.024-3.088-2.793-3.817-.86-4.373 2.252m55.057 19.563c2.638 4.045 1.62 8.744.362 13.66-.358-4.247-.374-8.715-.362-13.66m7.083-18.656c-.946 1.56-2.227 2.904-3.8 4.392.96-1.44 2.213-3.025 3.8-4.393"/><path fill="#1a4b59" d="M67.083 57.715c.46 1.272.62 2.693.955 4.457-3.52-.22-2.953-2.09-.955-4.457m-34.347 9.01c-1.245.153-2.458-.036-4.055-.113.874-3.03 2.453-1.987 4.055.113"/><path fill="#2a484b" d="M24.038 33.044c-.2-.917-.036-1.778.014-2.97.59.103 1.294.537 2 .971-.55.686-1.1 1.371-2.014 2m-1.034 2.02c-.167-.491.026-1 .404-1.706.109.43.033 1.06-.404 1.706m44.29-1.367c.326.164.644.653 1.02 1.453-.304-.169-.666-.649-1.02-1.453"/><path fill="#1a4b59" d="M68.245 62.83c.365-.003.77.316 1.325.853-.329-.03-.806-.28-1.325-.853"/><path fill="#2a484b" d="M68.283 35.683c.332.192.648.693.908 1.513-.345-.189-.635-.696-.908-1.513m.581 18.047c.147.42.059 1.032-.314 1.798-.163-.432-.042-1.018.314-1.798m-1.937-21.067c.146-.111.319.32.374.546-.136.006-.328-.215-.374-.546m-2.277-8.621c-.032-.054.032.055 0 0M22.438 18.52c.228-.074.523.133.918.597-.217.066-.534-.126-.918-.597m.982 1.02c.22-.068.526.143.939.617-.212.063-.533-.138-.939-.617m1.966 2.016q.303-.08.896.626-.303.08-.896-.626m-1.441 7.964c-.23.074-.52-.13-.906-.59.219-.067.532.122.906.59"/><path fill="#1a4b59" d="M69.741 64.342c.346-.182.566-.009.834.417-.236.083-.572-.021-.834-.417m-41.608 2.362c.073.213-.12.515-.566.921-.069-.208.116-.52.566-.921"/><path fill="#2a484b" d="M32.112 58.627c-.307-.122-.56-.316-.88-.789-.122-.207-.002-.334.29-.301.574.234.749.506.758.907-.057.06-.168.183-.168.183"/><path fill="#2a484b" d="M33.155 59.547c-.356-.07-.603-.26-.922-.717-.12-.203-.01-.326.275-.293.572.229.75.497.817.838 0 0-.111.117-.17.172"/><path fill="#63a872" d="M74.333 79.453c1.628-1.76 3.256-3.518 5.314-5.525 1.807-.338 3.183-.429 4.56-.52 1.527.916 3.055 1.832 5.014 3.245 3.037 5.54 2.235 10.355-1.617 12.789-4.316 2.727-9.416 1.15-13.097-4.05-.08-.432-.16-.863-.299-2.003.002-1.784.064-2.86.125-3.936"/><path fill="#f0b547" d="M89.083 11.26c-2.139 3.827-4.487 5.644-8.617 3.216-3.402-2-5.703-4.591-3.817-8.418 1.546-3.138 4.155-5.73 8.431-4.11 3.924 1.489 5.467 4.726 4.003 9.312"/><path fill="#63a872" d="M17.042 12.187c-1.88 1.797-3.756 3.154-5.686 4.824-4.374 1.441-8.475.662-10.06-3.63C.3 10.68.246 6.32 1.822 4.328 3.567 2.12 7.69.734 10.713.84c4.805.168 6.703 4.202 6.329 11.348"/><path fill="#2e8dc0" d="M15.36 78.402a139 139 0 0 1-.115 3.459c-.199 4.564-2.349 6.705-6.648 6.698-3.974-.007-6.078-1.975-6.425-5.915-.41-4.643 2.228-6.557 6.353-7.104.974-.13 1.976-.049 3.4-.106 1.027.42 1.622.88 2.397 1.842.443.702.705.904.967 1.106 0 0 .046.017.07.02"/><path fill="#3f9490" d="M15.207 78.156c-.18.024-.442-.178-.734-.637.258-.095.485.128.734.637"/><path fill="#cd6935" d="M58.476 33.445c5.401 3.93 6.537 15.336 2.183 21.905-4.616 6.963-14.266 9.735-21.953 6.478-1.36-.576-2.604-1.425-4.204-2.713 1.226-2.829 2.508-5.317 4.331-7.31 3.765-4.112 7.733-8.05 11.783-11.885 2.46-2.328 5.23-4.328 7.86-6.475"/><path fill="#eb7e39" d="M58.297 33.138c-2.451 2.454-5.222 4.454-7.68 6.782-4.051 3.834-8.02 7.773-11.784 11.886-1.823 1.992-3.105 4.48-4.626 7.091.007.348-.43.472-.656.475-.293-.338-.47-.606-.986-.895-.294-.434-.469-.706-.98-1-1.2-2.736-2.439-5.313-3.093-8.031-1.796-7.465 1.554-15.885 7.384-19.179 8.11-4.581 15.278-3.755 22.42 2.871"/></svg>