<svg xmlns="http://www.w3.org/2000/svg" xml:space="preserve" width="91.293" height="90.614" viewBox="0 0 91.293 90.614"><path fill="#1c4c59" d="M70.534 52.006a290 290 0 0 1-3.314 6.616c-.158.901-.015 1.341.128 1.781.763.842 1.527 1.683 2.708 2.936 3.453 3.468 6.487 6.525 9.465 9.926-1.797 1.853-3.538 3.362-5.54 4.676a3277 3277 0 0 1-12.93-11.749L49.336 70.6a174 174 0 0 1-6.506-.285c-1.223-.13-1.78-.15-2.339-.169-.314-.127-.63-.254-1.38-.57-.821-.246-1.206-.305-1.591-.364-.246-.233-.536-.38-1.318-.677-.872-.344-1.295-.451-1.718-.558 0 0-.101-.25-.236-.257a89 89 0 0 1-3.38-2.182c-4.64 4.366-9.11 8.571-14.05 13.06-.723.444-1 .522-1.413.186-1.384-1.501-2.654-2.672-3.905-4.133.035-.674.05-1.06.065-1.445L25.31 60.163c-6.417-10.29-6.557-19.99-.157-29.794-4.421-4.412-8.76-8.74-13.328-13.602 1.72-1.945 3.667-3.359 5.615-4.772l12.053 11.239a4148 4148 0 0 1 18.565-4.22c.995.111 1.557.294 2.632.612.934.16 1.354.181 1.775.204.413.153.827.307 1.765.689 1.07.37 1.614.512 2.157.654 0 0 .024-.093.086.152.373.335.684.425.995.516 0 0 .231.293.638.6 1.875 1.203 3.286 3.47 4.914.495 0 0 .23-.167.558-.452 3.84-3.704 7.35-7.124 11.212-10.5 1.846 1.738 3.34 3.433 4.641 5.4a749 749 0 0 1-7.168 7.54c-.886.73-1.773 1.462-3.067 2.59-.724 1.835-1.04 3.275-1.355 4.714.35.798.701 1.596 1.356 2.977.978 4.324 1.652 8.067 2.326 11.809l-.62 2.281a34 34 0 0 0-.37 2.711M58.253 32.39c-8.322-8.308-21.819-6.882-27.689 2.615-4.614 7.464-3.184 14.256 1.3 21.697 7.955 8.04 18.39 8.625 25.87 1.476 5.499-5.256 9.169-16.163.519-25.788"/><path fill="#3f9490" d="M17.436 11.584c-1.943 1.824-3.89 3.238-5.879 4.983-4.48 1.011-8.346.312-10.512-4.202C-1.125 7.843.793 2.76 5.38.71c4.152-1.855 9.233.162 11.042 4.671.714 1.78.695 3.854 1.014 6.204m-1.917 67.529c.3.005.576-.072 1.044-.272 1.438 4.471.434 8.25-3.857 10.49-3.582 1.871-7.227 1.262-10.066-1.516-3.208-3.14-3.535-6.917-.745-10.915.382-.102.611.125.56.51-1.826 4.663-.973 8.169 3.1 10.607 3.629 2.172 6.625.468 8.573-2.38 1.161-1.698.973-4.318 1.39-6.524m-4.373-5.904c.404.381.39.767-.057 1.47a49.4 49.4 0 0 1-7.727 1.23c-.162-.145-.513-.398-.513-.398 2.625-.766 5.251-1.532 8.297-2.302"/><path fill="#3f9490" d="M2.164 76.683c-.038-.416.109-.676.506-1.034.178-.137.53.116.577.474-.156.625-.419.807-.74.903 0 0-.23-.227-.343-.343"/><path fill="#c0a76b" d="M89.639 76.167c3.59 8.1.832 14.018-6.478 14.427-5.856.327-8.668-3.401-8.836-12.034 1.658-1.933 3.399-3.442 5.603-5.21 3.096.247 5.729.754 8.362 1.26.388.475.776.949 1.349 1.557m-11.832 9.73c1.943 3.195 5.011 3.349 7.703 1.862 1.749-.966 3.923-3.522 3.728-5.096-.293-2.372-2.052-5.14-4.037-6.516-1.265-.876-4.402-.098-6.103.927-3.131 1.888-3.494 4.986-1.291 8.823"/><path fill="#d1943c" d="M58.56 33.012c8.343 9.003 4.673 19.91-.827 25.166-7.48 7.149-17.915 6.565-25.588-1.815 1.752-1.306 3.421-2.07 4.661-3.277 5.71-5.553 11.249-11.28 16.966-16.824 1.364-1.323 3.18-2.18 4.788-3.25"/><path fill="#f0b547" d="M58.406 32.7c-1.454 1.383-3.27 2.24-4.634 3.562-5.717 5.544-11.257 11.271-16.966 16.824-1.24 1.206-2.909 1.971-4.73 2.956-4.696-6.78-6.126-13.573-1.512-21.037 5.87-9.497 19.367-10.923 27.842-2.304"/><path fill="#63a872" d="M74.791 11.983c-.331-1.193-.337-2.343-.287-3.491.228-5.19 3.512-8.524 8.343-8.492 4.578.031 8.047 3.085 8.41 7.402.42 5.011-2.813 9.013-7.844 9.633-.973.12-1.974.014-3.376.044-1.907-1.662-3.4-3.357-5.246-5.096"/><path fill="#2e8dc0" d="M2.456 77.41c.372-.48.635-.662.953-1.142 2.491-.567 4.869-.92 7.66-1.3 1.682 1.144 2.952 2.315 4.336 3.816-.304 2.536-.116 5.156-1.277 6.854-1.948 2.848-4.944 4.552-8.573 2.38-4.073-2.438-4.926-5.944-3.1-10.608"/><path fill="#eb7e39" d="M77.554 85.607c-1.95-3.547-1.587-6.645 1.544-8.533 1.701-1.025 4.838-1.803 6.103-.927 1.985 1.375 3.744 4.144 4.037 6.516.195 1.574-1.979 4.13-3.728 5.096-2.692 1.487-5.76 1.333-7.956-2.152"/></svg>