<svg xmlns="http://www.w3.org/2000/svg" xml:space="preserve" width="86.275" height="86.963" viewBox="0 0 86.275 86.963"><path fill="#1c4c59" d="M65.69 25.962c-.431.422-.862.844-1.69 1.776.975 6.412 2.35 12.312 3.616 18.498-.11.882-.113 1.479-.382 2.37-1.456 3.294-2.647 6.293-4.139 10.05 3.607 3.496 7.603 7.369 11.519 11.576-1.792 1.866-3.504 3.397-5.492 4.745-4.186-3.996-8.095-7.808-11.998-11.612-2.026 1.156-4.032 2.3-6.294 3.402-.573.089-.89.218-1.528.32-.676.185-1.03.397-1.784.518-3.185-.13-5.97-.17-9.078-.342a4508 4508 0 0 0-10.765-4.122c-3.416 3.668-7.23 7.764-11.358 11.756-1.796-1.68-3.28-3.257-4.542-5.093 3.992-4.214 7.762-8.169 11.384-11.97-1.378-3.112-2.7-6.096-4.038-9.485-.206-1.738-.395-3.071-.5-4.774.027-1.12-.03-1.871-.007-2.95.072-.776.066-1.224.267-1.96 1.493-3.584 2.778-6.88 4.199-10.525l-3.38-2.27s-.05.072-.097-.27c-.677-.827-1.307-1.311-1.937-1.795-.267-.121-.493-.295-.792-1.012-.441-.74-.77-.989-1.215-1.47-.647-.656-1.178-1.081-1.838-1.785-.832-1.02-1.535-1.758-2.16-2.772.41-.735.742-1.195 1.335-1.8.788-.723 1.317-1.3 2.083-2.033.702-.458 1.167-.762 1.878-.933.69.452 1.133.772 1.577 1.091 0 0 .106-.052.123.21.32.44.621.62 1.051 1.07 1.03 1.053 1.93 1.834 2.911 2.872.378.444.675.63.982.777.012-.04-.068-.017.015.242.381.45.679.643 1.093 1.122 1.42 1.132 2.724 1.977 4.028 2.823 7.441-3.306 15.076-4.624 23.49-2.193.417.053.536.16.855.44 1.71 1.078 3.102 1.875 4.598 2.732l3.2-3.152a593 593 0 0 0 4.96-4.76c.568-.683.769-.978.97-1.274.752-.336 1.505-.673 2.644-.81 1.685 1.542 2.983 2.883 3.984 4.444-2.782 2.922-5.266 5.625-7.75 8.328m-10.16 5.308c-7.604-7.064-18.242-7.077-24.807-.03-6.375 6.842-5.97 17.727 1.156 24.526 7.78 6.236 17.296 5.72 24.135-1.308 5.577-5.73 5.484-15.966-.484-23.188"/><path fill="#f0b547" d="M73.736 17.415c-1.298-1.342-2.597-2.683-3.977-4.339-.021-2.754-.471-5.35.212-7.6C71.15 1.6 75.751-.8 79.594.244c4.078 1.108 6.477 4.012 6.675 8.283.172 3.712-3.449 7.674-7.33 8.328-1.289.217-2.617.191-4.392.536-.464.26-.81.024-.81.024"/><path fill="#3f9490" d="M16.71 11.868c-.464.303-.93.607-1.687.628-.98-2.879-1.018-5.943-2.484-7.98-3.505-4.868-7.25-.984-10.89.437-.05-.042-.15-.125-.1-.422.19-.673.327-1.05.465-1.426.266-.055.48-.193 1.063-.723C9.733-.82 11.866-.294 16.494 5.278c0 0 .013.358.079.934.09 2.268.114 3.962.138 5.656m-3.975 3.242c-.333.46-.666.921-1.499 1.622-2.2.24-3.899.238-5.599.236l-.58-.42a9.4 9.4 0 0 0-1.387-.628s-.025.026-.046-.2-.1-.65.361-.69c3.224 0 5.987.04 8.75.08M.662 12.097c.02-2.316.148-4.5.556-6.976.28-.293.381-.21.413.254.318 3.206.603 5.95.678 8.653-.212-.04-.636-.108-.636-.108s-.027.026-.069-.264a4.3 4.3 0 0 0-.81-1.085s-.025-.34-.132-.474"/><path fill="#d1943c" d="M55.809 31.924c5.688 6.568 5.78 16.803.203 22.534-6.839 7.029-16.355 7.544-24.142.667 6.845-7.571 13.668-14.531 20.586-21.397.863-.857 2.223-1.214 3.353-1.804"/><path fill="#f0b547" d="M55.669 31.597c-.99.917-2.35 1.274-3.213 2.131a1273 1273 0 0 0-20.72 21.08c-6.985-5.841-7.39-16.726-1.015-23.568 6.565-7.047 17.203-7.034 24.948.357"/><path fill="#eb7e39" d="M16.318 74.897c.348 1.102.438 2.1.413 3.096-.136 5.366-3.625 8.987-8.607 8.97C4.16 86.95.19 83.032.008 78.953c-.211-4.748 3.632-8.682 8.73-8.915.663-.03 1.33.041 2.405.045 1.894 1.557 3.378 3.133 5.175 4.814"/><path fill="#63a872" d="M74.614 70.232c4.611-.52 9.278-.093 10.585 5.006.683 2.663.177 6.697-1.504 8.599-1.668 1.887-5.555 2.715-8.342 2.483-3.561-.296-5.63-3.251-5.908-7.015-.084-1.15-.011-2.313-.029-3.807 1.694-1.869 3.406-3.4 5.198-5.266"/><path fill="#2e8dc0" d="M2.547 14.048a284 284 0 0 1-.866-8.631c3.607-1.885 7.353-5.769 10.858-.9 1.466 2.036 1.504 5.1 2.247 8.134-.473 1.014-1.002 1.592-1.79 2.314-3.023.105-5.786.066-9.01.066-.46.04-.419-.015-.499-.239-.378-.412-.676-.6-.974-.79 0 0 .06.026.034.046"/><path fill="#3f9490" d="M2.54 14.237c.27-.046.569.143.96.587.092.255-.379.201-.612.157s-.321-.509-.348-.744"/></svg>